{
  "asset": {
    "version": "2.0",
    "generator": "Codex loading spinner generator"
  },
  "scene": 0,
  "scenes": [
    {
      "nodes": [
        0
      ]
    }
  ],
  "nodes": [
    {
      "mesh": 0,
      "name": "LoadingSpinner"
    }
  ],
  "meshes": [
    {
      "name": "LoadingSpinnerMesh",
      "primitives": [
        {
          "attributes": {
            "POSITION": 0,
            "NORMAL": 1
          },
          "indices": 2,
          "material": 0
        }
      ]
    }
  ],
  "materials": [
    {
      "name": "LoadingSpinnerMaterial",
      "pbrMetallicRoughness": {
        "baseColorFactor": [
          1,
          0.749,
          0.22,
          1
        ],
        "metallicFactor": 0,
        "roughnessFactor": 1
      },
      "emissiveFactor": [
        0.65,
        0.22,
        0.05
      ]
    }
  ],
  "accessors": [
    {
      "bufferView": 0,
      "componentType": 5126,
      "count": 216,
      "type": "VEC3",
      "min": [
        -0.96,
        -0.96,
        -0.96
      ],
      "max": [
        0.96,
        0.96,
        0.96
      ]
    },
    {
      "bufferView": 1,
      "componentType": 5126,
      "count": 216,
      "type": "VEC3"
    },
    {
      "bufferView": 2,
      "componentType": 5123,
      "count": 324,
      "type": "SCALAR",
      "min": [
        0
      ],
      "max": [
        215
      ]
    }
  ],
  "bufferViews": [
    {
      "buffer": 0,
      "byteOffset": 0,
      "byteLength": 2592,
      "target": 34962
    },
    {
      "buffer": 0,
      "byteOffset": 2592,
      "byteLength": 2592,
      "target": 34962
    },
    {
      "buffer": 0,
      "byteOffset": 5184,
      "byteLength": 648,
      "target": 34963
    }
  ],
  "buffers": [
    {
      "byteLength": 5832,
      "uri": "data:application/octet-stream;base64,"
    }
  ]
}
