<svg xmlns="http://www.w3.org/2000/svg" width="128" height="512" viewBox="0 0 128 512" fill="none">
  <defs>
    <linearGradient id="beamFade" x1="64" y1="0" x2="64" y2="512" gradientUnits="userSpaceOnUse">
      <stop offset="0" stop-color="white" stop-opacity="0"/>
      <stop offset="0.08" stop-color="white" stop-opacity="0.82"/>
      <stop offset="0.5" stop-color="white" stop-opacity="1"/>
      <stop offset="0.92" stop-color="white" stop-opacity="0.82"/>
      <stop offset="1" stop-color="white" stop-opacity="0"/>
    </linearGradient>
    <radialGradient id="beamWidth" cx="0" cy="0" r="1" gradientUnits="userSpaceOnUse" gradientTransform="translate(64 256) rotate(90) scale(256 54)">
      <stop offset="0" stop-color="white" stop-opacity="1"/>
      <stop offset="0.25" stop-color="white" stop-opacity="0.96"/>
      <stop offset="0.48" stop-color="white" stop-opacity="0.62"/>
      <stop offset="0.76" stop-color="white" stop-opacity="0.14"/>
      <stop offset="1" stop-color="white" stop-opacity="0"/>
    </radialGradient>
    <filter id="outerGlow" x="10" y="-10" width="108" height="532" filterUnits="userSpaceOnUse" color-interpolation-filters="sRGB">
      <feGaussianBlur stdDeviation="4.2"/>
    </filter>
    <filter id="innerGlow" x="30" y="-6" width="68" height="524" filterUnits="userSpaceOnUse" color-interpolation-filters="sRGB">
      <feGaussianBlur stdDeviation="1.6"/>
    </filter>
  </defs>

  <rect x="28" y="0" width="72" height="512" rx="36" fill="url(#beamFade)" opacity="0.36" filter="url(#outerGlow)"/>
  <rect x="38" y="0" width="52" height="512" rx="26" fill="url(#beamWidth)" opacity="0.95"/>
  <rect x="55" y="0" width="18" height="512" rx="9" fill="url(#beamFade)" opacity="0.9" filter="url(#innerGlow)"/>

  <path d="M61 12L67 38L58 64L70 92L60 122L69 152L57 182L71 214L60 248L69 281L58 314L70 347L60 380L67 414L57 447L66 500" stroke="white" stroke-opacity="0.96" stroke-width="4.5" stroke-linecap="round" stroke-linejoin="round"/>
  <path d="M67 16L61 44L70 72L58 103L68 134L59 164L71 198L58 232L69 264L60 296L70 328L59 360L69 392L61 424L71 458L63 496" stroke="white" stroke-opacity="0.78" stroke-width="3.3" stroke-linecap="round" stroke-linejoin="round"/>
  <path d="M54 40L61 58L54 78L62 100L55 124L62 146L54 170L63 194L55 220L61 244L54 272L61 300L54 326L62 354L55 382L62 412L56 440L61 470" stroke="white" stroke-opacity="0.38" stroke-width="2.2" stroke-linecap="round" stroke-linejoin="round"/>
  <path d="M74 52L67 74L74 98L66 122L73 148L66 176L74 206L67 236L74 266L66 294L74 324L66 352L73 380L67 406L74 432L68 458" stroke="white" stroke-opacity="0.34" stroke-width="2.2" stroke-linecap="round" stroke-linejoin="round"/>

  <path d="M46 88L55 96L48 106" stroke="white" stroke-opacity="0.22" stroke-width="1.8" stroke-linecap="round" stroke-linejoin="round"/>
  <path d="M77 156L84 166L76 176" stroke="white" stroke-opacity="0.2" stroke-width="1.8" stroke-linecap="round" stroke-linejoin="round"/>
  <path d="M45 256L54 264L46 274" stroke="white" stroke-opacity="0.22" stroke-width="1.8" stroke-linecap="round" stroke-linejoin="round"/>
  <path d="M76 334L84 344L77 354" stroke="white" stroke-opacity="0.2" stroke-width="1.8" stroke-linecap="round" stroke-linejoin="round"/>
  <path d="M47 420L55 430L48 440" stroke="white" stroke-opacity="0.22" stroke-width="1.8" stroke-linecap="round" stroke-linejoin="round"/>
</svg>
